<?xml version='1.0' encoding='utf-8'?>
<svg xmlns="http://www.w3.org/2000/svg" viewBox="0 0 2842 2842"><defs><style>.cls-1{fill:#e6e6e6;}.cls-2{fill:#b5d5eb;}.cls-3{fill:#e8c79d;}.cls-4{fill:#4d7084;}.cls-5{fill:#11897d;}.cls-6{fill:#563e27;}.cls-7{fill:#1b222a;}.cls-8{fill:#9b5e28;}.cls-9{fill:#fff;}.cls-10{fill:#ba8654;}.cls-11{fill:#ad9577;}.cls-12{fill:#764a23;}.cls-13{fill:#336d86;}.cls-14{fill:#dfe3e3;}.cls-15{fill:#8ca6b1;}.cls-16{fill:#515249;}.cls-17{fill:#c8d0d3;}.cls-18{fill:#dbe2e6;}.cls-19{fill:#d3dee2;}.cls-20{fill:#c9cbcc;}.cls-21{fill:#909697;}.cls-22{fill:#6e7576;}.cls-23{fill:#394f57;}.cls-24{fill:#897053;}.cls-25{fill:#9d8972;}.cls-26{fill:#015378;}</style></defs><title>group of people</title><g id="Layer_2" data-name="Layer 2"><g id="Layer_1-2" data-name="Layer 1"><circle class="cls-1" cx="1421" cy="1421" r="1421"/><path class="cls-2" d="M1939.26,2735.89c-28.46,13.33-58.52,22.11-88.38,31.5a1394.56,1394.56,0,0,1-176.87,43.4c-37,6.5-74.06,12.16-111.58,15.29-29.81,2.5-59.61,4.24-89.46,6-22.21,1.31-44.43,2.9-66.56,1.74-29.84-1.55-59.71-2.51-89.55-4.53-25.52-1.73-50.92-4.48-76.29-7.09-26.77-2.76-53.31-7.92-79.87-12.54-51.82-9-102.82-21.72-153.16-36.83-43.49-13.05-86.21-28.45-128.28-45.66a1332.8,1332.8,0,0,1-126.09-58.93,1509.26,1509.26,0,0,1-213.55-138.76c-61.65-48-118-101.49-171.33-158.24-42.28-45-80.71-93.44-116.36-144.06-28.41-40.35-54.23-82.25-79.06-124.81-1-1.64-1.56-3.48-3-6.76,9.79-2.3,13.12-11.66,19.9-17.3,14.15-11.78,26.49-25.48,40.42-37.38,14.28-12.2,28.48-24.54,43.39-36a221.56,221.56,0,0,1,24.21-15.79c9.66-5.62,18.31-12.57,27.64-18.58,5.47-3.51,7.46-8.32,7.21-14.73a159.19,159.19,0,0,1,.29-23.22c2.19-20.31,11.54-37.7,23.84-53.54,16.29-21,32.84-41.7,44.85-65.65,4.75-9.47,10.66-18.4,16.61-27.19,7.42-11,11.82-23.16,16-35.52,2.78-4.24,0-13.19,9-12.07,7.81,1,9.24,7.77,9.28,14.21.15,22.55.85,45,5.64,67.18,1.12,5.18,2.62,10.19,4.18,15.2,4.17,16.79,12.87,31.64,23.26,44.85,22.75,28.93,41.67,60.83,65.69,88.55,30.43,35.11,60.6,70.54,88.67,107.36,22.15,29,47.38,55,72,81.36,26,27.88,57.76,49.84,88.33,72.73,48,36,95.76,72.32,139.81,113.18,9,8.31,9.46,8.44,13.82-3.64,16.4-45.49,36.07-89.69,49.22-136.5,7.93-28.24,23.29-54.13,37.27-80.18,16-29.84,24.35-62,26.24-95.77,2.73-48.6-4.37-96.51-10.36-144.51-2.46-19.66-1.78-39.63-4.37-59.34.36-15.45-1.08-30.92.84-46.31,9.37-15.42,13.68-15.94,26-3.83,28.13,27.5,48.91,61.07,75,90.26,17.09,19.14,32,39.95,46.52,61,13,18.9,31.69,29.75,52.06,37.66,53.13,20.65,106,42.05,161.51,55.92,40.31,10.07,80.54,20.68,120.3,32.63,27.7,8.32,54.5,20,77.07,39.11,7.79,6.6,17,11,25.21,17,22.49,16.6,40.25,37.45,55.58,60.56,36.65,41.6,61.34,90.18,80.79,141.45,27.4,72.22,56.41,143.83,82.29,216.64,6,16.92,9.5,34.49,13.15,51.93a182.46,182.46,0,0,0,29.28,67.26c16.35,23.59,27.71,49.73,39.27,75.79C1939,2725.36,1940.34,2730.43,1939.26,2735.89Z"/><path class="cls-3" d="M2574.59,1387.3c-4.82,11.67-3.17,24-1.36,35.57,2.78,17.68,1.36,35.53,4.48,53.19,2.19,12.39,3.77,24.84,9.23,36.15C2610,1560,2634.38,1607,2668.79,1648c17.36,20.67,32.44,43.06,48.61,64.63,2.62,3.5,4.95,7.13,9.08,9-.17,9.57-8.59,12.16-14.53,16.41-21.59,15.49-46.86,22.88-71.65,31-67.69,22.21-129.37,55.86-188.54,95.16q-67.22,44.65-129.53,95.59c-34.83,28.46-67.87,59.07-103.21,87-28,22.09-58.57,36.63-95.62,36.4-16.54-.11-32.58,1.56-48.1-6-19.18-9.34-29.11-24.95-32.05-45.38-4.37-30.32-1.89-59.9,12-87.7,15.54-31.16,27.85-63.91,46.33-93.63,21.67-34.83,46.57-66.65,82.37-88.25,6.36-3.83,9.85-8.94,9.86-16.49,0-20.33.67-40.68-.28-61-.7-14.86-4.61-17.49-19.14-15.45-22.48,3.16-43.29,13.69-66.49,14.15-13.94.27-27.85,2.64-41.84.49-31.93-19.52-52.57-47.65-62.85-83.42-3.73-13-7.64-26-9.53-39.38-6.31-44.49-34.38-78-57.05-114.17-1.52-2.43-3.8-4.4-5.2-6.93-9.31-16.76-19.7-32.73-33.44-46.29,4.92-.81,6.92-3,3.81-7.79-6.39-9.72-10.48-20.58-15.6-30.94-9-18.21-8.88-37.14-7-56.53,1.88-19.72,10-38.08,11.74-57.9,2.19-25.08,1.69-50.11.39-75.12-.35-6.67-1.38-13.41-1.37-20.14,0-24.6-2.83-49-5.3-73.4-1.4-13.86-.32-28-.36-42,3.13-19.11,4.4-38.3,4.84-57.71,1-45.94,34.92-89,78.93-101.33,21.88-6.15,44.21-10.28,66.59-14.47,48-9,96.08-17.42,143.47-29.35,22.33-5.62,25.11-4,34.55,16.5,11.38,24.76,27.55,46.64,43.24,68.68,23.56,33.1,48.53,65,79.33,92.08,11.92,10.47,21,24,32.48,35.11a217.26,217.26,0,0,0,50.17,36.76c18.19,9.53,35.32,20.61,48.7,36.09,24.58,28.44,50.77,19.53,73.49-3.07,13.76-13.68,24.73-29.73,36.93-44.68,21.35-26.16,72.67-18.77,82.9,21.23,6.11,23.91,5,48.34,2.55,72.14-4.91,46.93-22.2,89.92-48.63,129.13-8.64,12.83-20.85,21.59-34,28.92-9.88,5.52-13.11,13.16-12.37,23.9.82,11.72,4.35,22.76,7.2,34C2575.74,1378.32,2579.38,1382.87,2574.59,1387.3Z"/><path class="cls-4" d="M2066.76,1681.07c29.76-1.42,59.94.43,88.36-11.43,9.05-3.78,18.91-3.74,28.35-5.72,7-1.48,11.09,1.67,12,8.9.52,4.31,1.7,8.58,1.8,12.89.49,21.29.65,42.58,1.12,63.87.12,5.73-.91,10-6.71,13-38.83,20.17-64.42,53.52-86.66,89.59-20.6,33.4-35.54,69.77-51.31,105.6-11.08,25.16-10.72,52-6.12,78.41,4.49,25.74,25.69,43.79,53.86,44.06,21,.2,42.48.79,63.09-6.8,18.86-6.94,36.26-16.06,51.59-28.92,35.94-30.16,71.49-60.78,107.57-90.76q50.2-41.73,104.22-78.48c51.6-35.08,104.84-67.31,162.45-92,27.63-11.83,56.63-19.57,84.61-30.27,19.09-7.3,36.74-17,51.53-31.41l9.82-8.09c4.66,1.46,8,4.3,11.12,7.27,16,15.44,31.91,30.83,44.13,49.73,5.75,8.9,6.76,16.84,3.73,27-19.29,64.95-42.12,128.57-70,190.34q-128.1,284-362,489.77a1417.38,1417.38,0,0,1-424,258.15c-13.73-33.5-28.85-66.28-49.42-96.28-13.9-20.28-21.68-43-26.45-66.93-8.56-42.87-23.43-83.7-40.82-123.63-13-29.73-23.18-60.41-34.17-90.87a1006.29,1006.29,0,0,0-53.71-123.57c-12.3-23.63-29.31-44.22-45.33-65.41,10.79-30.54,22.89-60.9,39.66-88.29,24.76-40.46,47.61-81.88,69-124.07,13.89-27.44,34.33-50.22,49.53-76.58,3.62-6.28,7.17-12.6,10.72-18.91,14.09-25.09,32.13-46.44,54.32-65.24,43.16-36.57,88.37-70.31,134.3-103.2A130.7,130.7,0,0,1,2066.76,1681.07Z"/><path class="cls-5" d="M2066.76,1681.07a6.61,6.61,0,0,1-3.51,5.85c-27.77,15.87-51.4,37.52-77.52,55.59-29.09,20.13-54.9,44-82.3,66-19.52,15.69-32.28,37-44.36,58.54-8,14.32-15.88,28.71-26.33,41.51-17.54,21.48-30.18,46-42.49,70.59-17.13,34.16-35.42,67.62-56.41,99.53-9.67,14.7-14.79,31.43-22.63,46.93-6.3,12.47-11.36,25.57-17,38.39a10.89,10.89,0,0,1-4.9,5.15c-11-13.43-20.48-28-33.43-39.9-40.72-37.49-85.73-67.17-140.39-80.2-40.37-9.63-80.28-21.09-120.25-32.12-52.58-14.51-103.61-34.15-153.89-55.41a103.77,103.77,0,0,1-46.35-38c-31.15-45.5-68.49-86.26-102-130-6.13-8-14.45-14.26-21.07-21.92-4.67-5.41-8.21-5.53-12.53-.14-.87,1.08-2.35,1.66-3.55,2.48-8.19-1.54-6.66-8.34-6.83-13.6-.5-15.29-.17-30.6-.22-45.89,0-6,.08-12.1.06-18.15,0-4.88,0-9.77.06-14.66-.43-12.1,4.83-23.82,2.44-36-.81-8.34,4.1-14.16,8.86-20a54.6,54.6,0,0,0,4.83-5.36c.61-1,1.3-1.86,2-2.75,1.72-2.18,3.17-4.55,4.66-6.88s3.37-4.34,4.74-6.73q1.62-2.91,3.1-5.9c1-2.07,2-4.12,3-6.2,1.28-2.75,2.49-5.53,3.72-8.31,1-2.46,2-4.94,3-7.42,8.57-22.65,25.59-38.77,43.64-53.27a846.78,846.78,0,0,1,102.71-70.74c5.44-3.18,11.12-5.89,16.73-8.74,11.43-5.8,22.31-5.37,32.7,2.49,2.7,2,5.47,4,8.19,6,44.43,33,107,35.14,150.59.46,25-19.87,46.57-13.62,69.15-.39,30,17.57,50.55,44.7,66.83,74.89,9,16.59,17.7,33.32,26.41,50,5.22,10,9.62,8.74,15.8,1.53,16-18.68,26.15-40.55,34.62-63.32,18.61-50,26.91-101.76,25.82-155-.39-18.85,1.11-37.73-1.16-56.56-.48-4-1.62-9.19,5.24-9.53,31.19,19.11,61.52,39.6,92.23,59.43,36.69,23.69,76.92,34.45,119.17,40.44,9.24,1.8,14.55,8.12,19.34,15.71,19.35,30.62,38.67,61.26,58.72,91.41,11.87,17.86,15.71,38.23,20.86,58.28,3.48,13.56,6.13,27.35,9.9,40.84C2016.44,1634.6,2037.58,1660.85,2066.76,1681.07Z"/><path class="cls-3" d="M1691.65,748.16c.32,3.82.34,7.38,4.74,9.65,8.84,4.56,10.46,12.6,10.58,22,.25,19.42-1.26,38.55-6.38,57.31-6.57,24.1-9.82,49.1-21.73,71.75-9.52,18.12-22.09,34.16-34.66,49.8-12.83,16-20.15,34-27.22,52.33-10.27,26.55-18.83,53.79-34.23,78-5.07,8-3.29,16.84-4.63,25.3a8.81,8.81,0,0,1-3.55,1.71c-12.69,10.12-19.58,25.09-30.65,36.48-30.36,31.23-60.81,62.38-95,89.53-14.94,11.85-31.77,18.22-50.92,18.23-13.07,0-26.16-.44-39.21.12-18.24.78-32.58-6.76-45.64-18.66-19.9-18.14-35.6-39.61-49.4-62.4-13-21.55-26.48-42.77-41.39-63.08a697,697,0,0,1-64.7-106.45c.77-24.69-3.77-48.94-6.28-73.34-2-19.79-12.6-35.41-27.22-47.92-15.16-13-21.5-29.4-21.72-48.46-.36-30.91-.19-61.84.25-92.75a97,97,0,0,1,3.45-22.78c3.07-11.8,10.39-16.47,24.84-17.25,7.79,3,7.71,10.65,9.24,16.93,4.28,17.49,12.5,32.92,22.42,48.94,4.06-6.5,2.41-11.87,2.53-16.94,1.1-44.94-2.05-89.94,2.91-134.84,5.41-48.92,27.06-87.85,71.06-110.95,28.93-15.18,59.5-7.42,88.88,2.11,13.81,4.48,27.31,9.59,42,11,29.89,2.77,55-8.12,77.57-26.37A269.13,269.13,0,0,0,1480.84,465c24.46-27.93,51.14-29.51,79.76-5.63A186.41,186.41,0,0,1,1586,485.24c42.43,52.32,68.19,111.78,77.89,178.51a584.05,584.05,0,0,1,6.12,95.42c-.13,6.58-1.53,13.5,2.74,20.86,6.79-4.58,7.09-12.23,10.14-18.21C1685.33,757,1684.18,749.79,1691.65,748.16Z"/><path class="cls-6" d="M2574.59,1387.3c-2.21-11.35-7.28-21.89-9.06-33.42-1-6.25-1.24-12.47-1.72-18.72-.83-10.79,2.72-17.15,13.4-22.17a86,86,0,0,0,37.23-33.54c28.23-46.28,46.3-95.54,45.27-150.58-.28-14.46,1.05-28.93-3.34-43.19-7.22-23.44-29.4-36.8-56-32.26-5.87,1-10.66,4.45-15.1,8.26a92.18,92.18,0,0,0-19,21.76c-7.39,12.07-17.27,22.08-26.89,32.28a61.56,61.56,0,0,1-20.21,13.85c-19.91,8.79-33.87,7.06-48.84-8.34-17.72-18.22-37.27-33.44-60-45-23.15-11.75-41.78-29.75-59-48.75-18.85-20.79-40.38-39-58.17-60.72-33.11-40.48-64.81-81.9-87.48-129.43-5.29-11.1-5.27-11.36-16.91-8.34-34.16,8.88-69.25,13.38-103.49,21.55-40.41,9.64-82,13.37-121.91,25.41-20.61,6.21-35.88,17.11-47.76,35-15.49,23.35-24.57,48.09-23.21,76.26.54,11.2-1.39,22.16-2.6,33.21-.46,4.15-1.79,7.46-5.49,9.57-7.68-6.18-7.82-15.44-8.6-23.83-3.2-34.26-2.41-68.65-2-103,.13-9.84,3.65-19,7.8-27.74,10.14-21.4,21-42.46,29.38-64.66,2.91-7.68,7.87-14.4,13-20.91a458.06,458.06,0,0,1,77.69-78c11.88-9.37,25.54-15.55,38.78-22.56,47.34-25,97.47-41.76,149.77-52.91,58.28-12.44,117-15.23,176.05-9.32,28,2.79,54.79,11.62,81.49,20.1,34.78,11,67.19,26.74,95.65,50.12a118.93,118.93,0,0,1,31,37.85c8.84,17.2,18.07,34.2,26.56,51.56,12.88,26.33,18.48,54.81,23.79,83.36,8,42.87,11.07,86.29,14.94,129.64,2,22.7,5.82,45,16.67,65.61,4.26,8.07,7.28,16.88,10.06,25.61,6.06,19,17.09,34.77,32.08,47.44,38.34,32.39,46.15,75.89,35.28,120.14-14,56.93-45.82,104.17-99.32,133.51-9.38,5.14-19.07,9.52-29.4,12.15C2587.16,1408.73,2580.62,1404.9,2574.59,1387.3Z"/><path class="cls-7" d="M1064.19,1625.65c-4.22,5.25-8.29,10.61-11,16.85,1.54,3.83-.7,7.19-1.34,10.75-31.14,46.59-58.33,96.5-101.49,133.57-39.37,33.82-85.07,55.16-137.94,57.47-20.29.89-40.68-.54-61,.3-34.76,1.42-66.68-6.31-97.4-23.1-63.95-34.93-121.07-78-167.8-134.21a207.74,207.74,0,0,1-29.07-45c-13.89-29.82-32.79-57.16-44.17-88.2-22-59.93-43.94-119.88-57.66-182.41a146.21,146.21,0,0,0-6.3-22.33c-5.76-14.62-14.83-25.46-30.82-30.31-8.6-2.61-19.65-3.78-21.63-16.09-14.75-45.91-33.09-90.78-41-138.67-4.35-26.33-4.89-53-3.73-79.58,1.55-35.34,4.57-70.45,17.23-104,15-39.71,35.44-76.09,63.9-107.88,34-37.95,69.36-74.66,112.1-102.58,55-35.93,114.48-63.27,180-72.78,46.68-6.77,93.65-3.87,139,11.66,43.47,14.89,86.15,31.81,126,54.73C914.8,778,940,792.66,960,812.86c27.17,27.46,50.35,58.16,65.78,94.6,12.9,30.47,23.35,61.23,28.8,93.85,1.68,10.1,1.36,20.23,2.76,30.3,7.11,51.2,14.61,102.32,27.94,152.38.3,7.57,6.44,13.36,6.45,21-1.21,7.75,1.44,19.34-13.44,13.7-2.29-2.48-3.61-5.52-4.87-8.59-19.41-48.24-30.09-98.59-36.58-150-4.27-33.79-17.11-65.28-27.44-97.41a61.56,61.56,0,0,0-3.29-8.69c-13.3-33.78-32.24-63.86-58.58-89-17.54-16.76-38.25-25.34-62.82-25.72-54.47-.85-106.6,11-158,27.53-28.16,9-57.57,12.62-86.13,20.2C598.5,898.17,556,908,512.7,913.59c-25.46,3.27-51.23-.28-76.72,4.4-30.12,5.53-48,19.61-49.5,44.56-1.48,24.09-2.37,48.36,1.2,72.46,1.06,7.18,2.27,14.37,3,21.57,1.86,19.37,2,38.43-6.36,57-7.63,16.91-10.07,35.09-10.28,53.79-.67,60.54,3.95,120.8,9.59,181,4.26,45.47,22.92,87,41.79,127.81,20.34,44,46.75,84.67,73.52,125,16.54,24.95,37.19,45.73,61,63.64a63,63,0,0,0,15,8.74c16.89,6.55,24.55,3.72,33.12-12.27,3.66-6.81,6.46-14.13,11.29-20.27,7.88-10,14.71-11,24.78-3.31,8.6,6.57,14.81,15.21,20.15,24.53,18.18,31.69,46.93,52.31,76.43,71.84,9.67,6.41,21.38,9.36,33.19,9.49,30,.33,59.93,1,89.85-3,40.8-5.46,93.32-47.3,102.62-95.33,2.76-14.27,3.71-28.87,7.56-42.88,2.88-10.49,4.54-23.58,18-25.51,14.71-2.11,17.06,11.45,21.68,21.26,1.65,3.5,3.13,7.08,4.89,10.53,4,7.76,9.53,8.66,16.76,4.44,9.21-5.38,14.44-14,19.54-22.88,18.88-32.86,27-69.21,34.8-105.72,5.94-27.7,6.29-55.68,6.17-83.79,0-6.68-2-17.18,8.16-17.09s10,10.79,9.57,18.06c-.79,12.09-1.35,24.14-1.24,36.25.59,31.45.77,62.78-6.52,93.77-3.33,14.18-6.5,28.2-13.74,41-1.31,3.18-2.29,6.51-3.65,9.66-.7,1-1.39,2-2,3s-1.06,2-1.52,3-.94,2-1.44,2.94a26.72,26.72,0,0,0-1.93,4.37c-.59,1.48-.85,3.08-1.59,4.51-1.44,1.7-2.07,3.8-2.92,5.8a33.74,33.74,0,0,1-3.63,3.84c-2.19,3.3-3.22,7.21-5.75,10.29l.1-.07C1065.65,1621.38,1066.23,1624.28,1064.19,1625.65Z"/><path class="cls-8" d="M296.59,1302.91c5.82,7.1,13.84,10.58,22.38,12.54,18,4.16,27.49,16.61,33.77,32.78a152.1,152.1,0,0,1,8.1,30.77c4.28,26.42,13,51.53,22.11,76.44,6.48,17.74,11.36,35.88,16.94,53.85a465.46,465.46,0,0,0,39,90.35c5.92,10.53,12.13,21,17.16,31.93,19,41.31,48,74.45,82.32,103.53,13.62,11.55,26.13,24.36,40.7,34.89a698.74,698.74,0,0,0,94.18,57c18.6,9.4,38.35,13,58.73,13.5,21.76.56,43.59-.69,65.32.32,33.28,1.55,63.54-7.74,93.83-20.55,46.57-19.69,79.34-54.07,107.37-94.26,17.12-24.54,33.89-49.33,50.82-74,7.82,8.76-.28,18.71,2.1,27.87,0,5.23,0,10.46,0,15.69q0,9.15,0,18.3c-1.08,35,1.44,70,2.93,104.94-4.38,19.72-17.83,34.08-30.4,48.45-23.24,26.59-47.07,52.47-65.9,82.69-13.06,20.95-30.89,38.44-47.84,56.3-15.09,15.89-34.07,18.74-54.87,12.31-39.07-12.09-75.24-30.65-111.23-49.53-19.33-10.14-38.77-20.28-59.56-26.53-43.53-13.07-85.62-30.63-130.2-40.43-38.3-8.43-64-34.9-86-65-8.89-12.19-8.76-27.88-9.14-42.75-.07,9,1.49,17.75,2.95,26.56,1,6,3.5,12.43-2.29,17.64-8.71-18.71-9-39-10.82-59-.89-9.55-.49-19.23-.56-28.84,0-4.6-.56-9.41-5.93-10s-4.48,5.19-6.35,8.18a10,10,0,0,1-2.06,1.87c-6.61-63.1-22.1-123.61-52.36-179.81-1.83-3.41-3.8-6.75-5.5-10.22-4.23-8.63-10.66-13.19-20.69-12.85-8.23.28-16.3-1.44-24.34-3.4-49.94-12.2-93.55-55.19-93.79-120.94-.11-29-.91-58.08,1.54-87.07.45-5.32,1-10.55,2.82-15.64,5-14,10.87-18.51,25.69-18.55C277.25,1302.16,286.92,1302.65,296.59,1302.91Z"/><path class="cls-9" d="M1087.81,1204.36c-1.07-6.76-4.53-13.22-2.57-20.37l3.49,6.09c17.93-13.21,31.59-31.41,50.21-43.93,2.84-1.91,5.55-5.81,9.83-2.41,5.22,3.44,7.26,9,9.1,14.47,15,44.69,41.9,82.36,69.25,120,25.38,35,52.8,67.86,84.56,97.14,2.13,2,4.09,4.12,6.23,6.08,28.33,25.77,42.94,27.59,76.15,8.3a221.6,221.6,0,0,0,41.71-31.23c36.09-34.37,68.83-72,103.77-107.46,16.57-16.81,28.61-37.68,41-57.93,2.74-4.49,4.35-9.85,9.84-12.08,6.59-5.38,8.41,1.65,10.79,4.74,12.33,16,24,32.48,36.35,48.44,10.31,13.29,22.84,24.9,31.6,39.31,4.8,7.9,10.23,14.78,17.48,20.35-2,.62-3.53,1.84-3.08,4.08,6.56,32.13,4.12,64.6,2.32,96.82-2.39,42.64-10.87,84.36-26.35,124.32-10.86,28-23.85,54.94-48.82,75.63-8.94-21.39-21.65-40-31.39-60.28-16-33.4-39-61-70-81.44-12-8-26.45-8.64-40.1-11.47-4.51-.94-7,2.69-9.85,5.13-30.72,26.09-66.49,36.23-106.33,34.43a92.14,92.14,0,0,1-53.54-19.59c-5-3.84-10-7.65-14.7-11.82-10.12-9-20.76-9.13-32.08-2.58-12.13,7-24.6,13.52-36.41,21a945.06,945.06,0,0,0-80.5,57c-18.64,14.83-34.52,32.31-44.85,54.2a4.19,4.19,0,0,1-2.34-2.9c13.69-38,21.17-77.14,20.18-117.72-.17-7.24.17-14.49.27-21.74,38.56-17.23,36.77-51.75,34.9-85-2.49-44.38-18.09-86.66-23.27-130.75-1.81-15.37-8.87-19-24.31-16.72C1093.41,1205,1090.6,1205.91,1087.81,1204.36Z"/><path class="cls-10" d="M1691.65,748.16c-4.09,11.25-8.1,22.52-12.33,33.71-1.16,3.06-2.27,7-6.54,6.7-4.1-.29-5.19-4.17-5.88-7.37a56.54,56.54,0,0,1-1-11.5c-.14-13.54-.21-27.08-.13-40.62.18-28.59-4.24-56.64-9.79-84.55-2.35-11.8-5.34-23.49-7.49-35.33-2.74-15-11.5-27.56-16.48-41.66-6.47-18.32-16.29-34.59-28.52-50-13.14-16.58-23.37-35.32-39.19-50-11.8-11-25.15-17.85-40.67-20.61-10.48-1.87-20.24.45-28,8.31-5.78,5.84-11.62,11.65-17,17.84-17.29,19.87-37,36.17-61.38,47.11-24,10.77-47.78,9.6-72,2.38-16.14-4.81-31.65-11.5-48.49-14.2-27.9-4.48-55.16-2.61-76.13,17.44-18.31,17.5-35.17,37.3-42.37,62.91-6.18,22-8.36,44.55-8.78,67.17-.68,36.75-.21,73.51-.22,110.27,0,2.9.06,5.8,0,8.7s.43,6.37-3.36,7c-2.55.4-4.06-2.08-5.4-4.17-11.32-17.56-20.66-36-25.19-56.59-1-4.68-1.26-9.64-4.3-13.7.07-7.84-2.41-15.23-4.2-22.71-10.9-45.68-10.69-92.15-9.5-138.6.42-16.75,7.37-32.43,17.33-45.58,15.45-20.4,30.72-41.12,49.29-59,14.7-14.15,30.57-26.59,48.75-36.23,23.52-12.48,45-28.35,67.66-42.31,26.77-16.49,55.7-23.6,86.25-27.38,21.72-2.69,43.44-2.53,65.21-2.83a73.84,73.84,0,0,1,25.72,3.76c45.09,15.85,91.37,28.25,134,51.05,25.63,13.73,46.85,30.36,59,57.42,4.34,9.68,10.06,18.76,15.49,27.91,9.8,16.52,15,34.47,17.57,53.36,3,21.64,3.28,43.4,3.34,65.18,0,11.14-.33,22.29.09,33.41C1708.53,666.78,1702.42,707.75,1691.65,748.16Z"/><path class="cls-3" d="M1590.34,1181.08c-16.27,32-36.19,61.44-61.86,86.81-32,31.59-60.92,66.11-93.92,96.69-21.56,20-46.1,34.75-74.8,42.23-6.59,1.71-12.53.87-17.94-2.9-9.87-6.9-20-13.43-28.62-22-16.39-16.45-32.72-33-49.33-49.19-4.57-4.46-7.9-9.75-11.61-14.76-20.08-27.09-40.53-53.93-59.71-81.65-16.24-23.48-28-49.46-37.78-76.31-2-5.42-4-10.83-6-16.24,5-10.57,4.89-22.32,5.25-33.34.64-20.05,3.06-40,3.58-60,9.85,1.68,11.71,10.93,15.15,17.63,24.75,48.28,53.84,94,81.73,140.44a290.41,290.41,0,0,0,38.39,50.88c19,19.9,42.92,30,71.85,27,68-6.9,114.24-47.57,153.53-98.45,16.82-21.78,34-43.42,49.22-66.41,2.06-3.11,4-6.81,8.56-7.19h2.09c-.29,21.17,4.05,41.63,9.42,62A8.14,8.14,0,0,0,1590.34,1181.08Z"/><path class="cls-11" d="M1576,1114.36c-19.57,30.41-42.57,58.34-63.33,87.9-16.94,24.12-40.4,41.32-64.74,57-15.72,10.1-31.2,21.12-49.51,26.74-4.16,1.28-8.1,2.9-12.57,2.89a184.78,184.78,0,0,0-27.33,2.06c-13.18,1.95-25.83-2.5-37.77-7.82-15.6-6.95-28.29-17.1-39.22-30.9-26.78-33.82-47.44-71.37-70.07-107.78-19.1-30.72-34.08-63.73-53.89-94a193.81,193.81,0,0,1,0-40.58c6.31.24,7,5.84,9.27,9.85,9.73,17.18,17.43,35.5,28.79,51.75,17.14,24.51,34.59,48.79,51.52,73.43,6,8.72,10.75,18.28,16.29,27.33,15.41,25.19,32.15,49.34,54.39,69.16,10.78,9.6,22.66,16,37.77,15.45,14-.51,28-.08,42.06-.09,19.07,0,35.47-6.43,50.41-18.54,32-25.94,61-54.89,89.69-84.25,11.16-11.42,19.46-25.14,29.56-37.41,1.84-2.23,3.07-5.37,5.94-6.06C1575.8,1109.86,1575.71,1112.6,1576,1114.36Z"/><path class="cls-12" d="M459.92,1838.42c1.25-11.19.91-22.55-3.39-32.82-3.5-8.37-.29-12.7,6.69-17.91,0,5.88.37,11-.07,16.14-1.34,15.47,4.23,28.84,13.91,40,14.89,17.18,31.39,32.86,50.86,45a70.91,70.91,0,0,0,25.79,9.32c25.42,4.24,49.21,13.56,73.34,21.84,22.82,7.84,46.28,13.58,68.81,22.39,31.59,12.36,60.68,29.74,91.19,44.25,22.69,10.78,45.62,20.9,69.66,28.46,22.59,7.1,41.35,2.18,57.21-18.55,6.19-8.1,13.77-14.86,20.44-22.49a356,356,0,0,0,34.8-47.89c11.18-18.16,26.07-33.66,40.76-48.71,16.38-16.78,27.86-36.94,43-54.43,1.76.73,2.12,2.55,3,3.93,2.78,44.37,9.19,88.4,13.2,132.61,4.28,47.16,4.09,94.81-14,140.17-3,7.62-5.92,15.4-10,22.5-20.58,36.28-37.76,73.81-48.62,114.35A383.42,383.42,0,0,1,971.77,2303a256.09,256.09,0,0,0-14.92,39.25c-1.58,5.41-2.75,11.14-7,15.89-6.67-3.5-10-9.7-14.67-14.4a502.53,502.53,0,0,0-50.45-43.65c-31.08-23.79-61.53-48.37-92.78-72-34.17-25.79-70.21-49.89-97.36-84.1-5.67-7.14-12.85-13.11-19.5-19.46-10.18-9.73-19.47-20.16-26.77-32.29-2.24-3.72-4.48-7.6-7.44-10.71-26.07-27.33-46.47-59.38-72.37-86.84-15.63-16.58-30-34.1-42.33-53.32a489.21,489.21,0,0,0-35.44-47.73C477.07,1877.28,466.13,1859.11,459.92,1838.42Z"/><path class="cls-13" d="M1055.94,1826.93l-3-3.93c-3.25-36.52-2.92-73.12-2.51-109.73.32-1.33,1.07-1.57,2.18-.84.1,16.11.11,32.24.37,48.35.07,4.55-1.54,9.64,3,13.26C1054.22,1791.67,1056.78,1809.3,1055.94,1826.93Z"/><path class="cls-11" d="M2520.83,1294.74c3.25,7.06,2.31,13.3,1.59,19.26-5.74,47.42-16.47,93.88-29.12,139.81-8.24,29.88-21.23,57.2-44.64,79.8-27.14,26.21-55.17,51.23-84.56,74.75-14.38,11.51-32.08,17.79-47.39,27.92-12.67,8.38-26.67,13.33-41.17,17.27-5.28,1.44-10.53,1.26-15.83.78-2.51-.22-4.95-1.46-5.55-3.95-.73-3,2.08-3.63,4.24-4.74,15-7.74,29.65-16.38,45-23.28,28.64-12.86,52.09-33,76.14-52.32,9.76-7.86,19.14-16.21,29.05-23.87,7.81-6,12.84-14.39,19.3-21.53,10-11.1,20.77-21.53,30.8-32.67,17.23-19.11,23.75-42.79,32.14-65.79,10.82-29.7,11.22-61.45,17.48-92.06,1.54-7.52,3.12-15,3.44-22.85C2512,1305.26,2514.66,1299.52,2520.83,1294.74Z"/><path class="cls-14" d="M1050.25,1680.87q-.45-14.46-.92-28.92l3.84-9.44c4.67,1.49,3.22,5.33,2.92,8.38-1,10-2.29,20-3.47,29.95Q1051.46,1682.88,1050.25,1680.87Z"/><path class="cls-15" d="M1052.56,1712.43c-.73.26-1.46.53-2.18.84q-.08-8.94-.16-17.89c.63-1.21,1.35-1.27,2.17-.19Q1052.48,1703.82,1052.56,1712.43Z"/><path class="cls-16" d="M1067.43,1620a18.24,18.24,0,0,1,5.67-12q2.3,1.68.41,3.8A9.56,9.56,0,0,1,1067.43,1620Z"/><path class="cls-17" d="M1052.39,1695.19l-2.17.19,0-14.51c.79,0,1.58,0,2.37,0Q1052.5,1688,1052.39,1695.19Z"/><path class="cls-18" d="M1081.24,1591.66l1.39-4a8.7,8.7,0,0,0,1.41-2.36l1.11-.18q1.32-1.91,2.75-.08c.37,3.51-1.92,5.91-3.6,8.57a1.82,1.82,0,0,1-2.51.88,2.5,2.5,0,0,1-.77-1.81C1081,1592,1081.1,1591.66,1081.24,1591.66Z"/><path class="cls-19" d="M1087.9,1585.05l-2.75.08c1.12-2.88,2.23-5.77,3.34-8.65l2.34,2.89C1090.75,1581.72,1090.08,1583.77,1087.9,1585.05Z"/><path class="cls-20" d="M1082.06,1593.57a8.83,8.83,0,0,1,2.24,0c-.88,1.93-1.77,3.87-2.66,5.8-.92,1.27-1.88,1.25-2.89.11.39-2,.79-4,1.18-6C1080.65,1592.64,1081.36,1592.65,1082.06,1593.57Z"/><path class="cls-21" d="M1078.75,1599.53a18.58,18.58,0,0,1,2.89-.11l-2.88,6a2,2,0,0,1-3.22-.12C1076,1603,1076.1,1600.56,1078.75,1599.53Z"/><path class="cls-22" d="M1075.54,1605.27l3.22.12a11.57,11.57,0,0,1-5.26,6.42c-.13-1.26-.27-2.53-.4-3.8Z"/><path class="cls-23" d="M1064.19,1625.65c.33-2.37.91-4.59,3.34-5.74C1067.53,1622.47,1066.76,1624.58,1064.19,1625.65Z"/><path class="cls-8" d="M1087.81,1204.36c24.5-11.13,34.3-5.45,38.2,21.26,4.18,28.61,9.33,57,16.3,85.17,7.53,30.41,9,61.8,1.62,93.29-4.65,19.73-15.35,30.42-35,32.93-1.22-10.61-1.81-21.3.68-31.74,1.34-5.62-.79-10.5-1.39-15.7-.3-2.66-2-4.66-4.79-4.27s-3.67,2.91-3.69,5.45c-.08,12.1.38,24.22-.15,36.29-2.53,58.07-14.27,113.86-41.86,165.62-5.76,10.81-12.24,20.93-24,26.25-10.43,4.74-13.17,3.93-18.09-6.39-3.74-7.85-6.81-16-10.39-23.94-2.24-5-5-9.35-11.52-9.53-6.86-.2-8.69,5-11.2,9.66-5.39,10-6.87,21.06-8.08,32.09-2.36,21.33-7.33,41.65-18.68,60.32-8.66,14.23-17.71,27.57-33.1,35.44-4.23,2.16-7.71,5.77-11.58,8.66-11.32,8.48-23.33,15-37.68,17.48-34.05,5.85-68.33,6.73-102.63,4.83a75.68,75.68,0,0,1-47.3-19.77c-10-9.12-22.19-15.51-31.57-25.46-13.22-14-27.77-26.93-35.64-45.24-2.7-6.29-7.69-11.15-12.75-15.66-10.11-9-15.89-8.13-22.89,3.74-3.92,6.66-7,13.81-10.66,20.63-9.3,17.38-14.8,19.5-33.79,12.67-16.82-6.06-29.33-18.53-42.43-29.84-20.36-17.58-34.69-40.11-49.48-62.27-22.59-33.83-43.48-68.71-61-105.36-19.79-41.45-36.87-84.12-43.88-130a254.22,254.22,0,0,1-3-34.61c-.34-23.71-2.65-47.31-4.25-70.89-1.88-27.59-1.16-55.09-1.81-82.62-.41-17.19,2.13-34.13,9.67-49.36,8.91-18,9.83-36.77,6.72-55.25-4.76-28.36-5.06-56.69-5.12-85.21-.09-37.86,17.95-51.82,53-58.84a177.08,177.08,0,0,1,41.84-3.08c34.14,1.37,67.23-5.88,100.2-13.31,36.7-8.28,73-18.58,109.95-25.46,27.22-5.07,52.82-15.06,79.52-21.5,42.42-10.22,85.11-17.76,129-15,19.49,1.21,36.76,9.2,51,22.13a230.48,230.48,0,0,1,63.33,95.7c1.33,2.22,1,5.09,2.83,7.12,13.13,35.78,24.82,71.73,29.77,110,5.76,44.48,15.17,88.42,32.24,130.29,1.07,2.62,1.39,5.55,2.06,8.34,1.26,2,.74,4.83,2.73,6.57,3.55,4,6.72,4,8.17-1.49C1088.11,1211.27,1087.68,1207.74,1087.81,1204.36Z"/><path class="cls-24" d="M1012.3,960.78c-2.64-1.69-3-4.28-2.83-7.11C1011.78,955.49,1012.43,958,1012.3,960.78Z"/><path class="cls-25" d="M1079.1,1216c-3-1.32-2.8-4-2.73-6.57C1078.9,1210.89,1079.29,1213.3,1079.1,1216Z"/><path class="cls-26" d="M1082.06,1593.57l-1.08,0s-1.07,0-1.06,0a1.48,1.48,0,0,1,1.32-1.91A15.38,15.38,0,0,1,1082.06,1593.57Z"/><path class="cls-26" d="M1084,1585.31c.37,1.29,0,2.12-1.41,2.36Z"/><path class="cls-7" d="M749.41,1436.72c14.17-.79,28.25,1.38,41.77,4.15,19.4,4,37.73,2.68,55.13-5.61,48.43-23,96-15.83,142.89,3.76,26.27,11,31.21,26.73,27.8,59.89a47.38,47.38,0,0,1-1.65,7c-1.75,6.56-3,13.9-11.3,15.12-8.95,1.32-17.67.05-23.26-8.22-4.33-6.39-7.82-13.33-11.92-19.89-9.64-15.43-20.28-30-40.12-32.59-12.47-1.62-25.2-2.05-37.51,1-25.25,6.31-51.14,9.84-76,18-9,3-18.84,3.84-28.63,3.69-19.82-.3-39.66.37-59.48-.12-39.49-1-77.42,19.24-92.19,65-2.68,8.28-5.32,16.58-9.74,24.14-6.67,11.4-12.55,12.22-23.43,5.13-26.3-17.15-27.27-55.3-12.6-74.74a164.3,164.3,0,0,1,37.32-36.21c10.13-7,22.07-9.83,33.6-13.13C689.31,1444.88,719,1438.51,749.41,1436.72Z"/><path class="cls-7" d="M839.23,1651.53c15.36-.84,30.2.92,45,3.09,8.93,1.31,11.23,7,5.94,14.27a24.46,24.46,0,0,1-5.2,4.95c-12.33,9.27-24.66,18.56-37.13,27.64-13,9.45-26.91,10.27-40.89,2.86-14.15-7.51-29-13.07-44.2-17.84-4.91-1.54-11.17-2.71-11.66-9.24-.52-7.08,5.42-10,10.82-11.94C787,1656.51,812.44,1649,839.23,1651.53Z"/></g></g></svg>